<?xml version="1.0" encoding="UTF-8" standalone="no"?>
<svg
   xmlns:dc="http://purl.org/dc/elements/1.1/"
   xmlns:cc="http://creativecommons.org/ns#"
   xmlns:rdf="http://www.w3.org/1999/02/22-rdf-syntax-ns#"
   xmlns:svg="http://www.w3.org/2000/svg"
   xmlns="http://www.w3.org/2000/svg"
   xmlns:sodipodi="http://sodipodi.sourceforge.net/DTD/sodipodi-0.dtd"
   xmlns:inkscape="http://www.inkscape.org/namespaces/inkscape"
   width="527.19781"
   height="871.71954"
   viewBox="0 0 882.17768 1506.3314"
   version="1.1"
   id="svg4528"
   sodipodi:docname="layout_ink.svg"
   inkscape:version="0.92.4 (5da689c313, 2019-01-14)">
  <metadata
     id="metadata4534">
    <rdf:RDF>
      <cc:Work
         rdf:about="">
        <dc:format>image/svg+xml</dc:format>
        <dc:type
           rdf:resource="http://purl.org/dc/dcmitype/StillImage" />
        <dc:title></dc:title>
      </cc:Work>
    </rdf:RDF>
  </metadata>
  <defs
     id="defs4532" />
  <sodipodi:namedview
     pagecolor="#ffffff"
     bordercolor="#666666"
     borderopacity="1"
     objecttolerance="10"
     gridtolerance="10"
     guidetolerance="10"
     inkscape:pageopacity="0"
     inkscape:pageshadow="2"
     inkscape:window-width="4082"
     inkscape:window-height="2252"
     id="namedview4530"
     showgrid="false"
     fit-margin-top="0"
     fit-margin-left="0"
     fit-margin-right="0"
     fit-margin-bottom="0"
     inkscape:zoom="2.146"
     inkscape:cx="327.27886"
     inkscape:cy="410.43796"
     inkscape:window-x="396"
     inkscape:window-y="213"
     inkscape:window-maximized="0"
     inkscape:current-layer="svg4528" />
  <path
     id="Selection"
     d="m 533.02552,34.059812 c 0,0 107.27707,-1.969001 107.27707,-1.969001 0,0 16.57918,-0.984502 16.57918,-0.984502 0,0 19.50493,0 19.50493,0 0,0 13.65343,-0.9845 13.65343,-0.9845 5.24684,-0.05907 18.31513,0.836826 22.43067,-1.289696 4.964,-2.579392 14.16057,-13.241538 18.52968,-14.85612 1.89197,-0.70884 4.78845,-0.5907 6.82672,-0.5907 0,0 98.49985,0 98.49985,0 0,0 0,16.736516 0,16.736516 0,0 42.91083,0.9845 42.91083,0.9845 0,0 0,94.512091 0,94.512091 0,0 -0.93624,9.84501 -0.93624,9.84501 0,0 0,15.75202 0,15.75202 0,0 9.67445,0 9.67445,0 0,0 0,13.78301 0,13.78301 0,0 -0.93625,9.84501 -0.93625,9.84501 0,0 -0.97524,35.44204 -0.97524,35.44204 0,0 -48.7623,0 -48.7623,0 0,0 0,13.78301 0,13.78301 0,0 -0.97525,15.75201 -0.97525,15.75201 0,0 0,59.07006 0,59.07006 0,0 -0.97525,16.73652 -0.97525,16.73652 0,0 0,68.91505 0,68.91505 0,0 -0.97524,14.76752 -0.97524,14.76752 0,0 0,61.03906 0,61.03906 0,0 -0.97524,14.76751 -0.97524,14.76751 0,0 0,56.11657 0,56.11657 0,0 -0.97525,16.73651 -0.97525,16.73651 0,0 0,60.05456 0,60.05456 0,0 -0.97525,14.76751 -0.97525,14.76751 0,0 0,45.28705 0,45.28705 -0.0196,8.50608 -0.35109,8.84082 -8.77722,8.83098 0,0 -62.41574,0 -62.41574,0 0,0 -13.65344,0 -13.65344,0 0,0 -11.70296,-0.95497 -11.70296,-0.95497 0,0 -82.89592,0 -82.89592,0 0,0 -23.4059,0 -23.4059,0 -1.94074,0 -5.66618,0.22643 -7.21682,-1.0042 -1.93099,-1.54566 -1.5604,-5.59196 -1.52139,-7.85631 0,0 0,-44.30255 0,-44.30255 0,0 0,-25.59703 0,-25.59703 0,0 0.93624,-10.82951 0.93624,-10.82951 0,0 0,-33.47303 0,-33.47303 0,0 -31.20788,0 -31.20788,0 0,0 -16.57918,0.9845 -16.57918,0.9845 0,0 -41.93557,0 -41.93557,0 0,0 -15.60395,0.98451 -15.60395,0.98451 0,0 -28.28214,0 -28.28214,0 0,0 -10.7277,0.66945 -10.7277,0.66945 0,0 -8.77722,-0.63007 -8.77722,-0.63007 0,0 -10.7277,0.94512 -10.7277,0.94512 0,0 -25.3564,0 -25.3564,0 0,0 -12.67821,0.9845 -12.67821,0.9845 0,0 -15.60393,0 -15.60393,0 -2.71119,0 -9.28434,-0.41349 -11.40062,1.00418 -2.69168,1.81149 -2.24307,5.97593 -2.25282,8.84083 0,0 0,122.07812 0,122.07812 0,0 -0.97526,22.64352 -0.97526,22.64352 0,0 0,96.58939 0,96.58939 0,0 71.19297,0 71.19297,0 0,0 16.57919,0 16.57919,0 0,0 10.7277,0 10.7277,0 0,0 15.60394,0 15.60394,0 0,0 19.50491,0.87621 19.50491,0.87621 0,0 81.92068,0 81.92068,0 0.25356,1.53581 0.24382,3.04211 1.56039,4.16443 1.84322,1.58505 13.93628,0.77776 16.96928,0.75808 0,0 35.10887,0 35.10887,0 0,0 106.30183,0 106.30183,0 2.42836,0 5.3736,0.21658 7.5484,-0.98452 2.10653,-1.1617 2.47713,-2.8649 5.25657,-3.63281 0,0 17.42765,-1.28969 17.42765,-1.28969 2.02851,-0.0198 5.84172,-0.14767 7.63618,0.5907 2.26257,0.92543 4.23256,3.45561 5.76371,5.31632 6.87548,8.39778 7.06077,14.01928 7.08028,24.61251 0,0 0,19.69002 0,19.69002 0,1.89024 0.12678,4.93235 -0.5754,6.63553 -1.05327,2.53018 -3.12078,2.83537 -4.14479,6.2122 0,0 0,14.71829 0,14.71829 0,0 -1.17029,16.73652 -1.17029,16.73652 0,0 0,15.75202 0,15.75202 0,0 -0.97525,11.81401 -0.97525,11.81401 0,0 0,13.78301 0,13.78301 0,0 -0.93624,10.8295 -0.93624,10.8295 0,0 0,18.70553 0,18.70553 0,0 6.82673,0 6.82673,0 -2.97451,10.23881 -23.65948,23.10619 -26.72175,31.50398 -0.70217,1.9099 -0.58515,4.8339 -0.58515,6.8915 0,0 0,27.5661 0,27.5661 0,0 -0.97525,16.7365 -0.97525,16.7365 0,0 0,54.1475 0,54.1475 0,0 5.85148,0 5.85148,0 0,0 0,25.597 0,25.597 0,0 -3.90099,0 -3.90099,0 0,0 0,73.8375 0,73.8375 0,0 0.97526,14.7676 0.97526,14.7676 0,0 0,70.8841 0,70.8841 0,0 0.97524,14.7675 0.97524,14.7675 0,0 0,25.5971 0,25.5971 0,1.9887 0.11704,5.0306 -0.58515,6.8521 -2.02851,5.3261 -21.49442,18.7055 -23.7765,22.8503 -1.10203,2.0182 -0.97524,4.4891 -0.99474,6.7241 0,0 0,23.628 0,23.628 0,0 -0.97525,14.7675 -0.97525,14.7675 0,0 0,51.194 0,51.194 0,3.6229 0.92648,17.6816 -1.56039,19.6703 -1.55065,1.2307 -5.2761,1.0042 -7.21682,1.0042 0,0 -19.50493,0 -19.50493,0 -4.68119,-0.088 -5.97826,-0.07 -6.82672,-4.9225 0,0 -60.46527,0 -60.46527,0 0,0 -14.62869,-0.9844 -14.62869,-0.9844 0,0 -52.66328,0 -52.66328,0 -0.5949,7.1474 -2.66242,5.9069 -15.60394,5.9069 0,0 0,-35.442 0,-35.442 0,0 0.97524,-16.7365 0.97524,-16.7365 0,0 0,-35.442 0,-35.442 0,0 0.97527,-16.7365 0.97527,-16.7365 0,0 0.97523,-96.4811 0.97523,-96.4811 0,0 0.97525,-16.7366 0.97525,-16.7366 0,0 0,-38.3955 0,-38.3955 0,0 0.97524,-14.7675 0.97524,-14.7675 0,0 0,-42.3336 0,-42.3336 0,0 -9.75245,0 -9.75245,0 0,0 0,-9.8449 0,-9.8449 0,0 4.87622,0 4.87622,0 0,0 0,-42.3336 0,-42.3336 0,0 -4.87622,0 -4.87622,0 0,0 0,-39.3801 0,-39.3801 0,0 -46.81182,0 -46.81182,0 0,0 -0.97525,30.5196 -0.97525,30.5196 0,0 -74.1187,0 -74.1187,0 0,0 -15.60393,-0.9845 -15.60393,-0.9845 0,0 -29.25739,0 -29.25739,0 -0.84847,4.8635 -5.12004,6.4485 -9.45014,4.3318 -3.05252,-1.4964 -1.57989,-5.0603 -5.32484,-6.6946 -1.60915,-0.7087 -4.86648,-0.5907 -6.68043,-0.5907 0,0 -18.52967,0 -18.52967,0 -10.12307,0.1969 -8.47489,6.8718 -8.81625,14.7675 0,0 -0.84845,7.8759 -0.84845,7.8759 -0.16579,2.3137 0.32184,6.2812 -1.64817,7.8565 -1.45311,1.1617 -4.45687,0.9844 -6.24157,1.0041 0,0 0,-4.9225 0,-4.9225 0,0 -34.13361,-0.9845 -34.13361,-0.9845 -0.5949,7.1475 -2.66243,5.907 -15.60393,5.907 0,0 0,-19.6899 0,-19.6899 0,0 -0.97525,-14.7676 -0.97525,-14.7676 0,0 -27.3069,-0.9845 -27.3069,-0.9845 0,0 0,51.194 0,51.194 -2.42836,0.4135 -4.14479,0.4923 -5.26631,3.1013 -0.70219,1.6146 -0.58516,4.9224 -0.58516,6.7437 0,0 0,22.6436 0,22.6436 0,0 0,33.473 0,33.473 0,3.18 -0.53639,8.0926 0.88747,10.8295 0,0 29.18912,32.4885 29.18912,32.4885 1.36535,2.6385 3.30607,10.4456 0.57539,12.6312 -1.65792,1.3094 -5.20781,1.1321 -7.24608,1.1519 0,0 0,84.6671 0,84.6671 0,0 0.97525,14.7674 0.97525,14.7674 0,0 0,105.3417 0,105.3417 -0.01,6.6552 -1.28732,11.4497 -7.80197,14.9349 -2.20405,0.9253 -15.0383,1.9985 -16.55968,0 -1.22881,-1.27 -0.985,-5.1785 -0.99475,-7.059 0,0 -59.49,0.9846 -59.49,0.9846 0,-4.3023 1.21904,-18.3118 -2.25282,-20.6549 -1.80421,-1.2109 -5.36386,-1.0042 -7.49965,-1.0042 0,0 -70.21772,0 -70.21772,0 0,0 -15.60394,-0.9844 -15.60394,-0.9844 0,0 -22.430658,0 -22.430658,0 0,0 0,20.6745 0,20.6745 0,0 -68.267227,0.9844 -68.267227,0.9844 -10.561914,-0.02 -10.201074,-2.3726 -17.5544292,-9.845 -2.1650464,-2.2052 -5.1688045,-4.9323 -6.2415751,-7.876 -0.78995023,-2.1461 -0.61440511,-7.3739 -0.58514773,-9.8449 0,0 0.97524613,-12.7986 0.97524613,-12.7986 0,0 0.9752461,-25.597 0.9752461,-25.597 0,0 0.9752462,-15.752 0.9752462,-15.752 0,0 0.9752461,-16.7366 0.9752461,-16.7366 0,0 1.2093052,-23.6278 1.2093052,-23.6278 0,0 0,-10.8297 0,-10.8297 0.068267,-2.8254 -1.0532659,-9.9632 0.760692,-12.198 1.6189085,-1.9788 8.1140483,-0.6891 10.7082023,-0.5906 0,0 11.702953,0.9746 11.702953,0.9746 0,0 19.504921,0 19.504921,0 0,0 -0.975246,-63.0081 -0.975246,-63.0081 -0.0097,-2.5301 0.341336,-6.2121 -1.560394,-8.1418 -3.462123,-3.5048 -6.592662,0.2659 -7.216821,-7.6101 0,0 5.07128,3.6623 5.07128,3.6623 4.954251,2.9339 5.636923,0.9845 5.656427,10.1207 0,0 0,17.721 0,17.721 0,0 0.936237,11.814 0.936237,11.814 0,0 0,12.7985 0,12.7985 0,0 1.014256,14.7675 1.014256,14.7675 0.02926,2.4613 0.516879,8.2304 -1.560394,9.8353 -1.735939,1.2994 -8.513898,0.04 -11.117806,0 0,0 -16.579184,0 -16.579184,0 0,0 -12.6781979,0.9942 -12.6781979,0.9942 0,0 -1.9504923,32.4886 -1.9504923,32.4886 0,0 -0.975246,13.7829 -0.975246,13.7829 0,0 -1.9504923,42.3337 -1.9504923,42.3337 0,0 -0.9752461,14.7675 -0.9752461,14.7675 0,0 -0.8192067,16.7365 -0.8192067,16.7365 0.5071279,3.928 3.0915302,6.1728 5.6954373,8.8605 6.885238,7.0687 7.665434,9.8253 17.554429,9.845 0,0 64.366242,0 64.366242,0 0,-3.7707 -0.95574,-17.534 1.696928,-19.7 1.501879,-1.2206 5.188309,-0.9746 7.080287,-0.9155 0,0 52.663292,0 52.663292,0 0,0 11.70295,0.9255 11.70295,0.9255 0,0 49.73755,0 49.73755,0 0,0 0.97524,21.659 0.97524,21.659 0,0 13.65346,-0.9845 13.65346,-0.9845 0,0 44.86132,0 44.86132,0 0,0 0,7.7185 0,7.7185 0,0 10.72769,0 10.72769,0 6.43663,-1.6935 10.60094,-7.1081 10.72772,-13.6255 0,0 0,-54.1475 0,-54.1475 0,0 -0.93624,-12.7986 -0.93624,-12.7986 0,0 0,-92.5431 0,-92.5431 0,0 0,-27.566 0,-27.566 0,0 -0.83871,-13.783 -0.83871,-13.783 0,0 0.7997,-5.907 0.7997,-5.907 0,0 8.77722,-0.9845 8.77722,-0.9845 -0.55589,-2.2644 -1.07277,-6.0252 -1.93099,-7.876 -2.51613,-5.4149 -16.87176,-18.7842 -21.88452,-24.6126 -6.68045,-7.7677 -9.32335,-7.2262 -9.34286,-17.721 0,0 0,-17.721 0,-17.721 0,0 0.97524,-15.752 0.97524,-15.752 0,0 0,-38.3956 0,-38.3956 0,0 4.88598,0 4.88598,0 0,0 0,-35.4419 0,-35.4419 -0.0196,-2.7665 -0.27305,-12.5623 0.98501,-14.4526 2.009,-3.0126 10.05478,-1.3094 13.63394,-1.2996 3.40361,0.01 15.58443,-0.9056 17.53493,1.5753 1.14104,1.457 0.98499,4.509 0.99474,6.3007 0,0 0,27.5662 0,27.5662 0,0 10.72771,0 10.72771,0 0,0 0,-5.9071 0,-5.9071 0,0 19.50493,0 19.50493,0 0,0 19.50492,0.9845 19.50492,0.9845 0,0 0.97523,4.9226 0.97523,4.9226 0,0 1.95051,0 1.95051,0 0,0 1.86271,-20.6746 1.86271,-20.6746 0.1658,-2.3529 -0.29257,-7.492 1.08253,-9.2543 1.53113,-1.9492 5.5394,-1.5752 7.78246,-1.6145 0,0 11.70296,0 11.70296,0 0,0 10.7277,-0.9452 10.7277,-0.9452 1.81396,-0.01 5.96851,-0.1673 7.49964,0.5907 3.24757,1.6047 1.51163,6.4978 5.27607,7.5413 2.97451,0.8171 3.98878,-2.0577 4.77872,-4.1939 0,0 59.49,0 59.49,0 0,0 14.6287,0.9843 14.6287,0.9843 0,0 16.57919,0 16.57919,0 0,0 19.50492,0 19.50492,0 0,0 7.08028,-1.5751 7.08028,-1.5751 0,0 1.69693,-9.2543 1.69693,-9.2543 0,0 0.97526,-19.69 0.97526,-19.69 0,0 51.68804,0 51.68804,0 0,0 -0.97526,39.38 -0.97526,39.38 3.26707,0.2757 5.06153,0.1379 5.33459,3.9971 0,0 0.51689,35.383 0.51689,35.383 -0.0389,5.6806 0.21456,7.364 -5.85148,7.8759 0,0 0,4.9225 0,4.9225 9.94751,0 10.70821,-0.5513 10.72772,8.8605 0,0 -0.97526,19.69 -0.97526,19.69 0,0 0,35.4421 0,35.4421 0,0 -0.97524,16.7366 -0.97524,16.7366 0,0 0,35.4419 0,35.4419 0,0 -0.97525,16.7365 -0.97525,16.7365 0,0 0,43.3181 0,43.3181 0,0 -0.97524,16.7365 -0.97524,16.7365 0,0 0,35.4421 0,35.4421 0,0 -1.03377,16.7365 -1.03377,16.7365 0,0 0,49.225 0,49.225 0,0 -0.91671,18.7056 -0.91671,18.7056 0,0 11.70294,-0.9845 11.70294,-0.9845 0,0 0,-4.8833 0,-4.8833 0,0 64.36624,0 64.36624,0 0,0 34.13361,0 34.13361,0 0,0 10.72771,0.9452 10.72771,0.9452 0,0 23.40591,0 23.40591,0 0,0 0,4.9226 0,4.9226 0,0 13.65345,0 13.65345,0 0,0 15.82823,-0.9845 15.82823,-0.9845 0,0 0,-11.8141 0,-11.8141 0,0 0,-7.8759 0,-7.8759 0,0 0.75094,-10.8295 0.75094,-10.8295 0,0 0,-60.0547 0,-60.0547 0.0196,-6.0546 -0.65341,-21.846 2.53565,-26.4141 3.14028,-4.4991 20.90927,-16.3033 22.94753,-22.811 0,0 0,-19.6899 0,-19.6899 0,0 0,-65.9615 0,-65.9615 0,0 -1.10203,-15.7521 -1.10203,-15.7521 0,0 0,-70.8841 0,-70.8841 0,0 -0.97524,-15.752 -0.97524,-15.752 -0.01,-3.0421 -0.54614,-14.1669 0.99476,-16.1457 1.06301,-1.3686 2.38934,-1.3095 3.88147,-1.5752 0,0 0,-21.6592 0,-21.6592 0,0 -5.85148,0.9846 -5.85148,0.9846 0,0 0,-31.504 0,-31.504 0,0 0,-66.9461 0,-66.9461 0,0 1.47262,-11.814 1.47262,-11.814 0,0 24.85903,-27.56598 24.85903,-27.56598 0,0 -5.06153,-2.27419 -5.06153,-2.27419 0,0 0,-11.50883 0,-11.50883 0,0 0,-17.72101 0,-17.72101 0,0 1.16055,-14.76752 1.16055,-14.76752 0,0 0.97524,-39.38002 0.97524,-39.38002 0,0 0.93624,-11.81401 0.93624,-11.81401 0,0 0,-12.79852 0,-12.79852 0,0 3.93999,0 3.93999,0 0,0 0,-35.44204 0,-35.44204 -0.11703,-6.88166 -4.59341,-13.15293 -9.84023,-17.41582 -3.88148,-3.14056 -6.27083,-1.87055 -10.63994,-1.45706 0,0 -11.65419,0.5907 -11.65419,0.5907 -3.27682,0.94512 -3.72543,2.93382 -6.15381,3.92816 -1.71642,0.699 -4.68117,0.57101 -6.57315,0.57101 0,0 -51.68804,0 -51.68804,0 0,0 -11.70296,0.94511 -11.70296,0.94511 0,0 -13.65345,0 -13.65345,0 0,0 -67.29198,0 -67.29198,0 -3.37434,0.0394 -16.82299,0.70885 -18.91976,-0.9648 -1.52139,-1.22077 -1.41411,-3.16025 -1.56039,-5.19817 0,0 -185.29676,0 -185.29676,0 0,0 -8.77722,0 -8.77722,0 0,0 -5.85148,0 -5.85148,0 -3.47187,0.32488 -4.6129,-0.20674 -7.80197,0 -2.29182,-0.74823 -6.10504,-0.27565 -7.63617,-2.23481 -2.22357,-2.8649 -0.44862,-11.4399 -0.66317,-15.19085 0,0 0.58515,-15.75202 0.58515,-15.75202 0,0 0,-89.58958 0,-89.58958 0,0 0,-38.39554 0,-38.39554 0,0 0.88747,-13.78301 0.88747,-13.78301 0,0 0,-80.76846 0,-80.76846 0,0 15.60394,0 15.60394,0 0,0 11.70295,-0.94513 11.70295,-0.94513 0,0 88.74739,-0.9845 88.74739,-0.9845 0,0 15.60394,-0.9845 15.60394,-0.9845 0,0 31.20788,0 31.20788,0 0,0 20.48016,-0.97465 20.48016,-0.97465 0,0 30.23263,0 30.23263,0 0,0 19.89502,0 19.89502,0 0,0 1.56039,7.86615 1.56039,7.86615 0,0 0,79.74458 0,79.74458 0,0 -0.97523,14.76752 -0.97523,14.76752 0,0 0,19.86723 0,19.86723 0,0 10.7277,0 10.7277,0 0,0 6.82672,0 6.82672,0 0,0 11.70296,0.93527 11.70296,0.93527 0,0 87.77214,0 87.77214,0 0,0 51.68804,0 51.68804,0 0,0 19.50493,0 19.50493,0 0,0 5.85148,0 5.85148,0 0,0 12.6782,0.85652 12.6782,0.85652 0,0 0.97524,-22.64352 0.97524,-22.64352 0,0 0,-59.07007 0,-59.07007 0,0 0.97524,-16.7365 0.97524,-16.7365 0,0 0,-60.05456 0,-60.05456 0,0 0.97525,-14.76752 0.97525,-14.76752 0,0 0,-56.11655 0,-56.11655 0,0 0.97525,-16.73652 0.97525,-16.73652 0,0 0,-59.07005 0,-59.07005 0,0 1.01425,-16.73652 1.01425,-16.73652 0,0 0,-47.25604 0,-47.25604 0,0 0,-24.61252 0,-24.61252 0,0 0.93624,-10.82951 0.93624,-10.82951 0,0 0,-54.14756 0,-54.14756 0.0196,-8.50609 0.35108,-8.84082 8.77722,-8.86051 0,0 40.96033,0 40.96033,0 0,0 0.97525,-22.64352 0.97525,-22.64352 0,0 0,-31.50403 0,-31.50403 0,0 -8.77722,0 -8.77722,0 0,0 0,-45.28704 0,-45.28704 0,0 0.97525,-23.628028 0.97525,-23.628028 0,0 0,-50.20955 0,-50.20955 0,0 -10.72771,-0.984501 -10.72771,-0.984501 0,0 -21.45541,-0.817134 -21.45541,-0.817134 -2.77945,-0.265817 -8.97227,0.472559 -10.7082,-1.742568 -1.52139,-1.94931 -0.99475,-11.32176 -0.99475,-14.176813 0,0 -42.91084,-0.984501 -42.91084,-0.984501 0,0 -49.73754,0 -49.73754,0 -11.41038,0.01969 -13.00979,4.617309 -21.45542,11.961687 -1.50188,1.309386 -3.09152,2.874742 -4.87623,3.770637 -1.95049,0.974657 -19.25135,1.978848 -22.43066,1.988692 0,0 -63.39099,0.984501 -63.39099,0.984501 0,0 -14.62869,0.984502 -14.62869,0.984502 0,0 -21.45541,0 -21.45541,0 0,0 -16.57919,0.984501 -16.57919,0.984501 0,0 -34.13363,0.70884 -34.13363,0.70884 -5.27607,0.630081 -9.64517,1.545668 -10.72768,-4.646844 0,0 -16.5792,0 -16.5792,0 -12.98052,0.01969 -11.92726,3.632808 -20.48991,11.646646 -7.92876,7.413292 -13.6242,10.10098 -13.6437,21.826386 0,0 0,28.550528 0,28.550528 0,0 -0.97524,15.752009 -0.97524,15.752009 0,0 0,25.59703 0,25.59703 0,0 -0.97526,15.75202 -0.97526,15.75202 -2.92573,0 -7.07053,-0.28552 -9.65493,1.15186 -3.05252,1.71303 -5.32485,6.67491 -7.25583,9.67764 0,0 -14.60919,23.62803 -14.60919,23.62803 -1.97974,3.18979 -6.60242,11.82386 -9.75245,13.22185 -1.46287,0.63993 -3.94,0.55132 -5.5394,0.61038 -2.67217,-0.0295 -11.78098,-0.7876 -13.4779,0 -3.08178,1.5949 -6.96325,9.56935 -8.81622,12.7493 0,0 -12.03455,19.69002 -12.03455,19.69002 -1.58965,2.68768 -5.43211,9.4709 -7.37285,11.39068 -3.26708,3.22915 -7.74346,2.24466 -11.93703,2.43171 0,0 -26.31213,2.07729 -26.31213,2.07729 -9.34286,1.51614 -1.44336,13.97991 -7.14855,17.00233 -2.86723,1.50629 -11.859,1.4866 -15.30162,1.56537 0,0 -21.45541,1.79178 -21.45541,1.79178 -3.18905,0.3052 -9.89875,-0.52178 -12.0833,1.74257 -1.51162,1.56536 -1.55064,11.62696 -1.06301,14.13744 0,0 0,9.88438 0,9.88438 0,0 0,5.90701 0,5.90701 0,0 0,5.90701 0,5.90701 0,0 0,5.907 0,5.907 0,0 0,26.58153 0,26.58153 0,0 0,8.8605 0,8.8605 0,0 0,22.64353 0,22.64353 0,0 19.25135,0.97466 19.25135,0.97466 0,0 1.16055,7.88585 1.16055,7.88585 0,0 0.53639,18.70551 0.53639,18.70551 0,0 0,170.31867 0,170.31867 0,0 0.97524,25.59701 0.97524,25.59701 0,0 -1.56039,6.87184 -1.56039,6.87184 0,0 -10.14256,1.00418 -10.14256,1.00418 0,0 -14.62869,0.98451 -14.62869,0.98451 0,0 -3.90098,0 -3.90098,0 0,0 -18.52969,0.98449 -18.52969,0.98449 0,0 -15.60393,0.9845 -15.60393,0.9845 0,0 -41.93559,1.969 -41.93559,1.969 0,0 -14.62868,0.98451 -14.62868,0.98451 0,0 0,104.3571 0,104.3571 0,0 0.97524,13.78301 0.97524,13.78301 0,0 19.50492,0 19.50492,0 0,0 0.97525,27.56602 0.97525,27.56602 0,0 0,44.30256 0,44.30256 0.0389,3.10116 -0.12678,11.96167 2.37959,13.76331 1.70669,1.22078 5.3151,1.00419 7.37288,1.00419 0,0 57.53951,0.9845 57.53951,0.9845 1.94074,0 5.66617,-0.22643 7.21682,1.0042 2.11628,1.69335 1.3751,5.50336 1.33609,7.85631 0,0 0,7.87601 0,7.87601 0,0 -0.75094,11.81402 -0.75094,11.81402 0,0 0,106.32609 0,106.32609 0,1.9887 -0.11703,5.0308 0.58514,6.85213 1.80421,4.72561 21.1531,18.82365 23.7765,23.75601 1.1898,2.23482 0.985,5.29661 0.99475,7.7874 0,0 0,25.59697 0,25.59697 -0.0683,9.8942 -4.07653,10.1995 -10.72771,16.7463 -4.29108,4.2335 -16.92052,18.1936 -21.45541,19.9362 -2.22356,0.8565 -5.41262,0.7285 -7.80197,0.7285 0,0 -83.87116,0 -83.87116,0 0,0 0,-37.411 0,-37.411 0.0196,-2.7763 0.68267,-7.0688 -1.48238,-9.1164 -2.65267,-2.5204 -13.20482,-1.7131 -17.0473,-1.7131 0,0 0,-31.50399 0,-31.50399 0,-2.15605 0.20481,-5.74948 -0.99475,-7.5708 -1.97975,-2.99288 -13.86801,-3.16025 -17.53492,-3.26856 0,0 -8.77722,-0.88605 -8.77722,-0.88605 0,0 -45.83657,-3.04211 -45.83657,-3.04211 0,0 0,88.60501 0,88.60501 0,0 -16.579177,0 -16.579177,0 2.516135,19.2274 8.777215,63.4708 8.777215,80.7292 0,0 -17.55443,0.9844 -17.55443,0.9844 0,0 -39.98509,1.9689 -39.98509,1.9689 -11.673694,0.079 -7.821473,4.194 -7.801968,15.7522 0,0 1.014256,21.6589 1.014256,21.6589 0,0 0,15.7521 0,15.7521 0,0 0.975246,11.814 0.975246,11.814 0,0 0,15.752 0,15.752 0,0 0.936236,11.814 0.936236,11.814 0,0 0.975245,43.318 0.975245,43.318 0,0 3.900985,0 3.900985,0 0,0 0,1.969 0,1.969 0,0 -5.851477,0 -5.851477,0 0,0 -1.950491,-63.0081 -1.950491,-63.0081 0,0 -0.936236,-11.8139 -0.936236,-11.8139 0,0 0,-12.7985 0,-12.7985 0,0 -1.014256,-16.7365 -1.014256,-16.7365 0,0 -0.565643,-22.6437 -0.565643,-22.6437 0,0 0.585147,-11.2232 0.585147,-11.2232 0,0 5.831971,-1.5752 5.831971,-1.5752 0,0 13.653446,-0.9844 13.653446,-0.9844 0,0 45.836567,-1.9691 45.836567,-1.9691 0,0 -1.804206,-17.721 -1.804206,-17.721 0,0 -6.973009,-63.9926 -6.973009,-63.9926 0,0 16.579189,0 16.579189,0 0,0 0,-88.605 0,-88.605 0,0 33.15837,2.78613 33.15837,2.78613 0,0 21.4554,1.31923 21.4554,1.31923 0,0 22.43066,1.80164 22.43066,1.80164 0,0 0,41.34906 0,41.34906 0,0 19.50493,0 19.50493,0 0,0 0,48.24054 0,48.24054 0,0 39.98508,0 39.98508,0 0,0 11.70296,-0.886 11.70296,-0.886 0,0 28.28214,0 28.28214,0 2.03827,-0.098 4.93474,0.02 6.82671,-0.6893 3.14031,-1.1617 12.805,-10.406 15.60395,-13.1923 2.7697,-2.7665 14.97003,-14.3441 15.99404,-16.9038 0.71192,-1.7525 0.58515,-4.8044 0.58515,-6.7242 0,0 0,-22.64347 0,-22.64347 -0.039,-2.00838 0,-3.9183 -0.99475,-5.73965 0,0 -22.84027,-21.91498 -22.84027,-21.91498 -3.89124,-5.41476 -1.53114,-13.22184 -1.52138,-19.60141 0,0 0,-124.04712 0,-124.04712 0,0 -49.73756,0 -49.73756,0 0,0 -25.35638,-0.98449 -25.35638,-0.98449 0,0 0,-39.38005 0,-39.38005 0,0 -0.97527,-15.75201 -0.97527,-15.75201 0,0 0,-31.50403 0,-31.50403 0,0 -20.48016,0 -20.48016,0 0,0 0,-91.55859 0,-91.55859 0,0 -0.86797,-11.81401 -0.86797,-11.81401 -0.15604,-3.34731 -0.90698,-16.67746 1.42385,-18.53817 1.7652,-1.39798 6.01728,-1.15186 8.22134,-1.15186 0,0 4.87622,0 4.87622,0 0,0 14.6287,-0.9845 14.6287,-0.9845 0,0 17.55443,-0.98449 17.55443,-0.98449 0,0 25.3564,-0.98451 25.3564,-0.98451 0,0 14.62869,-0.9845 14.62869,-0.9845 0,0 15.60393,-0.8959 15.60393,-0.8959 0,0 18.52967,-1.0731 18.52967,-1.0731 0,0 0,-145.70614 0,-145.70614 0,0 -0.93623,-12.79852 -0.93623,-12.79852 0,0 0,-8.8605 0,-8.8605 0,0 0,-59.07006 0,-59.07006 0,0 -20.51917,0 -20.51917,0 0,0 0,-105.3416 0,-105.3416 0,0 51.68804,-2.9535 51.68804,-2.9535 0.27307,-3.39653 0.47787,-15.76187 3.22807,-17.13032 1.34584,-0.66946 5.68568,-0.64977 7.49963,-0.86637 0,0 17.55444,-1.68349 17.55444,-1.68349 3.96925,-0.0985 11.08854,0.0295 14.53117,-1.98869 2.92572,-1.71303 5.38334,-6.85213 7.23632,-9.83516 0,0 14.97978,-24.61253 14.97978,-24.61253 1.71644,-2.74676 4.64217,-8.27965 7.31435,-9.92377 3.55964,-1.94931 9.59642,-0.3938 13.47789,0 8.8845,0.60054 11.64444,-8.04336 15.60394,-14.68876 0,0 13.38038,-21.65902 13.38038,-21.65902 1.54088,-2.67784 5.17856,-9.28384 7.60691,-10.83934 2.1553,-1.37832 7.57767,-0.97467 10.22059,-0.97467 0,0 0,-15.75201 0,-15.75201 0,0 0.97523,-15.75201 0.97523,-15.75201 0,0 0,-24.612531 0,-24.612531 0,0 0.97525,-14.767513 0.97525,-14.767513 0,0 0,-15.752015 0,-15.752015 0.0196,-10.799976 4.33985,-12.257037 11.70296,-19.690019 7.5289,-7.600348 9.5379,-12.778823 20.48017,-12.798513 0,0 22.43066,0 22.43066,0 0,0 0,3.938003 0,3.938003 z"
     inkscape:connector-curvature="0"
     style="fill:none;stroke:#000000;stroke-width:0.97986251" />
</svg>
