<?xml version="1.0" encoding="UTF-8"?>
<svg width="527.2" height="871.72" version="1.1" viewBox="0 0 882.18 1506.3" xmlns="http://www.w3.org/2000/svg" xmlns:cc="http://creativecommons.org/ns#" xmlns:dc="http://purl.org/dc/elements/1.1/" xmlns:rdf="http://www.w3.org/1999/02/22-rdf-syntax-ns#">
 <metadata>
  <rdf:RDF>
   <cc:Work rdf:about="">
    <dc:format>image/svg+xml</dc:format>
    <dc:type rdf:resource="http://purl.org/dc/dcmitype/StillImage"/>
    <dc:title/>
   </cc:Work>
  </rdf:RDF>
 </metadata>
 <path id="Selection" d="m533.03 34.06 107.28-1.969 16.579-0.9845h19.505s13.653-0.9845 13.653-0.9845c5.2468-0.05907 18.315 0.83683 22.431-1.2897 4.964-2.5794 14.161-13.242 18.53-14.856 1.892-0.70884 4.7884-0.5907 6.8267-0.5907h98.5v16.737s42.911 0.9845 42.911 0.9845v94.512l-0.93624 9.845v15.752h9.6744v13.783s-0.93625 9.845-0.93625 9.845l-0.97524 35.442h-48.762v13.783l-0.97525 15.752v59.07l-0.97525 16.737v68.915l-0.97524 14.768v61.039l-0.97524 14.768v56.117l-0.97525 16.737v60.055l-0.97525 14.768v45.287c-0.0196 8.5061-0.35109 8.8408-8.7772 8.831h-62.416-13.653l-11.703-0.95497h-82.896-23.406c-1.9407 0-5.6662 0.22643-7.2168-1.0042-1.931-1.5457-1.5604-5.592-1.5214-7.8563v-44.303-25.597l0.93624-10.83v-33.473h-31.208l-16.579 0.9845h-41.936l-15.604 0.98451h-28.282l-10.728 0.66945-8.7772-0.63007-10.728 0.94512h-25.356l-12.678 0.9845h-15.604c-2.7112 0-9.2843-0.41349-11.401 1.0042-2.6917 1.8115-2.2431 5.9759-2.2528 8.8408v122.08l-0.97526 22.644v96.589h71.193 16.579 10.728 15.604l19.505 0.87621h81.921c0.25356 1.5358 0.24382 3.0421 1.5604 4.1644 1.8432 1.585 13.936 0.77776 16.969 0.75808h35.109 106.3c2.4284 0 5.3736 0.21658 7.5484-0.98452 2.1065-1.1617 2.4771-2.8649 5.2566-3.6328l17.428-1.2897c2.0285-0.0198 5.8417-0.14767 7.6362 0.5907 2.2626 0.92543 4.2326 3.4556 5.7637 5.3163 6.8755 8.3978 7.0608 14.019 7.0803 24.613v19.69c0 1.8902 0.12678 4.9324-0.5754 6.6355-1.0533 2.5302-3.1208 2.8354-4.1448 6.2122v14.718l-1.1703 16.737v15.752l-0.97525 11.814v13.783l-0.93624 10.83v18.706h6.8267c-2.9745 10.239-23.659 23.106-26.722 31.504-0.70217 1.9099-0.58515 4.8339-0.58515 6.8915v27.566l-0.97525 16.736v54.148h5.8515v25.597h-3.901v73.838l0.97526 14.768v70.884l0.97524 14.768v25.597c0 1.9887 0.11704 5.0306-0.58515 6.8521-2.0285 5.3261-21.494 18.706-23.776 22.85-1.102 2.0182-0.97524 4.4891-0.99474 6.7241v23.628l-0.97525 14.768v51.194c0 3.6229 0.92648 17.682-1.5604 19.67-1.5506 1.2307-5.2761 1.0042-7.2168 1.0042h-19.505c-4.6812-0.088-5.9783-0.07-6.8267-4.9225h-60.465l-14.629-0.9844h-52.663c-0.5949 7.1474-2.6624 5.9069-15.604 5.9069v-35.442l0.97524-16.736v-35.442l0.97527-16.736 0.97523-96.481 0.97525-16.737v-38.396l0.97524-14.768v-42.334h-9.7524v-9.8449h4.8762v-42.334h-4.8762v-39.38h-46.812l-0.97525 30.52h-74.119l-15.604-0.9845h-29.257c-0.84847 4.8635-5.12 6.4485-9.4501 4.3318-3.0525-1.4964-1.5799-5.0603-5.3248-6.6946-1.6092-0.7087-4.8665-0.5907-6.6804-0.5907h-18.53c-10.123 0.1969-8.4749 6.8718-8.8162 14.768l-0.84845 7.8759c-0.16579 2.3137 0.32184 6.2812-1.6482 7.8565-1.4531 1.1617-4.4569 0.9844-6.2416 1.0041v-4.9225s-34.134-0.9845-34.134-0.9845c-0.5949 7.1475-2.6624 5.907-15.604 5.907v-19.69l-0.97525-14.768s-27.307-0.9845-27.307-0.9845v51.194c-2.4284 0.4135-4.1448 0.4923-5.2663 3.1013-0.70219 1.6146-0.58516 4.9224-0.58516 6.7437v22.644 33.473c0 3.18-0.53639 8.0926 0.88747 10.83 0 0 29.189 32.488 29.189 32.488 1.3654 2.6385 3.3061 10.446 0.57539 12.631-1.6579 1.3094-5.2078 1.1321-7.2461 1.1519v84.667l0.97525 14.767v105.34c-0.01 6.6552-1.2873 11.45-7.802 14.935-2.204 0.9253-15.038 1.9985-16.56 0-1.2288-1.27-0.985-5.1785-0.99475-7.059 0 0-59.49 0.9846-59.49 0.9846 0-4.3023 1.219-18.312-2.2528-20.655-1.8042-1.2109-5.3639-1.0042-7.4996-1.0042h-70.218l-15.604-0.9844h-22.431v20.674s-68.267 0.9844-68.267 0.9844c-10.562-0.02-10.201-2.3726-17.554-9.845-2.165-2.2052-5.1688-4.9323-6.2416-7.876-0.78995-2.1461-0.61441-7.3739-0.58515-9.8449l0.97525-12.799 0.97525-25.597 0.97525-15.752 0.97525-16.737s1.2093-23.628 1.2093-23.628v-10.83c0.068267-2.8254-1.0533-9.9632 0.76069-12.198 1.6189-1.9788 8.114-0.6891 10.708-0.5906l11.703 0.9746h19.505l-0.97525-63.008c-0.0097-2.5301 0.34134-6.2121-1.5604-8.1418-3.4621-3.5048-6.5927 0.2659-7.2168-7.6101l5.0713 3.6623c4.9543 2.9339 5.6369 0.9845 5.6564 10.121v17.721l0.93624 11.814v12.798l1.0143 14.768c0.02926 2.4613 0.51688 8.2304-1.5604 9.8353-1.7359 1.2994-8.5139 0.04-11.118 0h-16.579l-12.678 0.9942-1.9505 32.489-0.97525 13.783s-1.9505 42.334-1.9505 42.334l-0.97525 14.768-0.81921 16.736c0.50713 3.928 3.0915 6.1728 5.6954 8.8605 6.8852 7.0687 7.6654 9.8253 17.554 9.845h64.366c0-3.7707-0.95574-17.534 1.6969-19.7 1.5019-1.2206 5.1883-0.9746 7.0803-0.9155h52.663l11.703 0.9255h49.738l0.97524 21.659 13.653-0.9845h44.861v7.7185h10.728c6.4366-1.6935 10.601-7.1081 10.728-13.626v-54.148l-0.93624-12.799v-92.543-27.566l-0.83871-13.783 0.7997-5.907 8.7772-0.9845c-0.55589-2.2644-1.0728-6.0252-1.931-7.876-2.5161-5.4149-16.872-18.784-21.885-24.613-6.6804-7.7677-9.3234-7.2262-9.3429-17.721v-17.721l0.97524-15.752v-38.396h4.886v-35.442c-0.0196-2.7665-0.27305-12.562 0.98501-14.453 2.009-3.0126 10.055-1.3094 13.634-1.2996 3.4036 0.01 15.584-0.9056 17.535 1.5753 1.141 1.457 0.98499 4.509 0.99474 6.3007v27.566h10.728v-5.9071h19.505l19.505 0.9845 0.97523 4.9226h1.9505l1.8627-20.675c0.1658-2.3529-0.29257-7.492 1.0825-9.2543 1.5311-1.9492 5.5394-1.5752 7.7825-1.6145h11.703l10.728-0.9452c1.814-0.01 5.9685-0.1673 7.4996 0.5907 3.2476 1.6047 1.5116 6.4978 5.2761 7.5413 2.9745 0.8171 3.9888-2.0577 4.7787-4.1939h59.49l14.629 0.9843h16.579 19.505l7.0803-1.5751s1.6969-9.2543 1.6969-9.2543l0.97526-19.69h51.688l-0.97526 39.38c3.2671 0.2757 5.0615 0.1379 5.3346 3.9971l0.51689 35.383c-0.0389 5.6806 0.21456 7.364-5.8515 7.8759v4.9225c9.9475 0 10.708-0.5513 10.728 8.8605l-0.97526 19.69v35.442l-0.97524 16.737v35.442l-0.97525 16.736v43.318l-0.97524 16.736v35.442l-1.0338 16.736v49.225l-0.91671 18.706s11.703-0.9845 11.703-0.9845v-4.8833h64.366 34.134s10.728 0.9452 10.728 0.9452h23.406v4.9226h13.653s15.828-0.9845 15.828-0.9845v-11.814-7.8759l0.75094-10.83v-60.055c0.0196-6.0546-0.65341-21.846 2.5356-26.414 3.1403-4.4991 20.909-16.303 22.948-22.811v-19.69-65.962l-1.102-15.752v-70.884l-0.97524-15.752c-0.01-3.0421-0.54614-14.167 0.99476-16.146 1.063-1.3686 2.3893-1.3095 3.8815-1.5752v-21.659s-5.8515 0.9846-5.8515 0.9846v-31.504-66.946l1.4726-11.814s24.859-27.566 24.859-27.566l-5.0615-2.2742v-11.509-17.721s1.1606-14.768 1.1606-14.768l0.97524-39.38 0.93624-11.814v-12.799h3.94v-35.442c-0.11703-6.8817-4.5934-13.153-9.8402-17.416-3.8815-3.1406-6.2708-1.8706-10.64-1.4571l-11.654 0.5907c-3.2768 0.94512-3.7254 2.9338-6.1538 3.9282-1.7164 0.699-4.6812 0.57101-6.5732 0.57101h-51.688l-11.703 0.94511h-13.653-67.292c-3.3743 0.0394-16.823 0.70885-18.92-0.9648-1.5214-1.2208-1.4141-3.1602-1.5604-5.1982h-185.3-8.7772-5.8515c-3.4719 0.32488-4.6129-0.20674-7.802 0-2.2918-0.74823-6.105-0.27565-7.6362-2.2348-2.2236-2.8649-0.44862-11.44-0.66317-15.191l0.58515-15.752v-89.59-38.396l0.88747-13.783v-80.768h15.604s11.703-0.94513 11.703-0.94513 88.747-0.9845 88.747-0.9845l15.604-0.9845h31.208s20.48-0.97465 20.48-0.97465h30.233 19.895l1.5604 7.8662v79.745l-0.97523 14.768v19.867h10.728 6.8267l11.703 0.93527h87.772 51.688 19.505 5.8515l12.678 0.85652 0.97524-22.644v-59.07l0.97524-16.736v-60.055l0.97525-14.768v-56.117l0.97525-16.737v-59.07l1.0142-16.737v-47.256-24.613l0.93624-10.83v-54.148c0.0196-8.5061 0.35108-8.8408 8.7772-8.8605h40.96l0.97525-22.644v-31.504h-8.7772v-45.287l0.97525-23.628v-50.21l-10.728-0.9845-21.455-0.81713c-2.7794-0.26582-8.9723 0.47256-10.708-1.7426-1.5214-1.9493-0.99475-11.322-0.99475-14.177 0 0-42.911-0.9845-42.911-0.9845h-49.738c-11.41 0.01969-13.01 4.6173-21.455 11.962-1.5019 1.3094-3.0915 2.8747-4.8762 3.7706-1.9505 0.97466-19.251 1.9788-22.431 1.9887 0 0-63.391 0.9845-63.391 0.9845l-14.629 0.9845h-21.455l-16.579 0.9845-34.134 0.70884c-5.2761 0.63008-9.6452 1.5457-10.728-4.6468h-16.579c-12.981 0.01969-11.927 3.6328-20.49 11.647-7.9288 7.4133-13.624 10.101-13.644 21.826v28.551l-0.97524 15.752v25.597l-0.97526 15.752c-2.9257 0-7.0705-0.28552-9.6549 1.1519-3.0525 1.713-5.3248 6.6749-7.2558 9.6776l-14.609 23.628c-1.9797 3.1898-6.6024 11.824-9.7524 13.222-1.4629 0.63993-3.94 0.55132-5.5394 0.61038-2.6722-0.0295-11.781-0.7876-13.478 0-3.0818 1.5949-6.9632 9.5694-8.8162 12.749l-12.035 19.69c-1.5896 2.6877-5.4321 9.4709-7.3728 11.391-3.2671 3.2292-7.7435 2.2447-11.937 2.4317l-26.312 2.0773c-9.3429 1.5161-1.4434 13.98-7.1486 17.002-2.8672 1.5063-11.859 1.4866-15.302 1.5654l-21.455 1.7918c-3.189 0.3052-9.8988-0.52178-12.083 1.7426-1.5116 1.5654-1.5506 11.627-1.063 14.137v9.8844 5.907 5.907 5.907 26.582 8.8605 22.644s19.251 0.97466 19.251 0.97466 1.1606 7.8858 1.1606 7.8858l0.53639 18.706v170.32l0.97524 25.597-1.5604 6.8718-10.143 1.0042-14.629 0.98451h-3.901l-18.53 0.98449-15.604 0.9845-41.936 1.969-14.629 0.98451v104.36l0.97524 13.783h19.505l0.97525 27.566v44.303c0.0389 3.1012-0.12678 11.962 2.3796 13.763 1.7067 1.2208 5.3151 1.0042 7.3729 1.0042 0 0 57.54 0.9845 57.54 0.9845 1.9407 0 5.6662-0.22643 7.2168 1.0042 2.1163 1.6934 1.3751 5.5034 1.3361 7.8563v7.876l-0.75094 11.814v106.33c0 1.9887-0.11703 5.0308 0.58514 6.8521 1.8042 4.7256 21.153 18.824 23.776 23.756 1.1898 2.2348 0.985 5.2966 0.99475 7.7874v25.597c-0.0683 9.8942-4.0765 10.2-10.728 16.746-4.2911 4.2335-16.921 18.194-21.455 19.936-2.2236 0.8565-5.4126 0.7285-7.802 0.7285h-83.871v-37.411c0.0196-2.7763 0.68267-7.0688-1.4824-9.1164-2.6527-2.5204-13.205-1.7131-17.047-1.7131v-31.504c0-2.156 0.20481-5.7495-0.99475-7.5708-1.9798-2.9929-13.868-3.1602-17.535-3.2686 0 0-8.7772-0.88605-8.7772-0.88605l-45.837-3.0421v88.605h-16.579c2.5161 19.227 8.7772 63.471 8.7772 80.729l-17.554 0.9844-39.985 1.9689c-11.674 0.079-7.8215 4.194-7.802 15.752l1.0143 21.659v15.752l0.97525 11.814v15.752l0.93624 11.814 0.97524 43.318h3.901v1.969h-5.8515l-1.9505-63.008-0.93624-11.814v-12.798l-1.0143-16.736-0.56564-22.644 0.58515-11.223 5.832-1.5752 13.653-0.9844 45.837-1.9691-1.8042-17.721-6.973-63.993h16.579v-88.605l33.158 2.7861 21.455 1.3192 22.431 1.8016v41.349h19.505v48.241h39.985s11.703-0.886 11.703-0.886h28.282c2.0383-0.098 4.9347 0.02 6.8267-0.6893 3.1403-1.1617 12.805-10.406 15.604-13.192 2.7697-2.7665 14.97-14.344 15.994-16.904 0.71192-1.7525 0.58515-4.8044 0.58515-6.7242v-22.643c-0.039-2.0084 0-3.9183-0.99475-5.7396l-22.84-21.915c-3.8912-5.4148-1.5311-13.222-1.5214-19.601v-124.05h-49.738s-25.356-0.98449-25.356-0.98449v-39.38l-0.97527-15.752v-31.504h-20.48v-91.559l-0.86797-11.814c-0.15604-3.3473-0.90698-16.677 1.4238-18.538 1.7652-1.398 6.0173-1.1519 8.2213-1.1519h4.8762l14.629-0.9845 17.554-0.98449 25.356-0.98451 14.629-0.9845 15.604-0.8959 18.53-1.0731v-145.71l-0.93623-12.799v-8.8605-59.07h-20.519v-105.34l51.688-2.9535c0.27307-3.3965 0.47787-15.762 3.2281-17.13 1.3458-0.66946 5.6857-0.64977 7.4996-0.86637l17.554-1.6835c3.9692-0.0985 11.089 0.0295 14.531-1.9887 2.9257-1.713 5.3833-6.8521 7.2363-9.8352 0 0 14.98-24.613 14.98-24.613 1.7164-2.7468 4.6422-8.2796 7.3144-9.9238 3.5596-1.9493 9.5964-0.3938 13.478 0 8.8845 0.60054 11.644-8.0434 15.604-14.689l13.38-21.659c1.5409-2.6778 5.1786-9.2838 7.6069-10.839 2.1553-1.3783 7.5777-0.97467 10.221-0.97467v-15.752l0.97523-15.752v-24.613l0.97525-14.768v-15.752c0.0196-10.8 4.3398-12.257 11.703-19.69 7.5289-7.6003 9.5379-12.779 20.48-12.799h22.431v3.938z" fill="none" stroke="#000" stroke-width=".97986"/>
</svg>
