<?xml version="1.0" encoding="UTF-8"?>
<!-- Generator: Adobe Illustrator 19.2.1, SVG Export Plug-In . SVG Version: 6.00 Build 0)  -->
<svg width="398.05" height="95.671" version="1.1" viewBox="0 0 398.05 95.671" ><path d="m89.644 88.571c-3 3-6.5 5.4-10.2 7.1h40.4c3.9-6.7 6.5-13.9 7.8-21.3h-29.4c-1.7 5.2-4.5 10.1-8.6 14.2m25.2-55.6 1.4-1.4c-2.6-3.9-5.3-8-8.8-11.4-25.1-25.1-63.1-27.8-88.6-2.3-21.1 21.1-24.5 53.2-10.1 77.8h40.5c-3.7-1.7-7.1-4.1-10.2-7.1-13.9-13.9-13.9-36.5 0-50.5 10.9-10.9 24.7-12.2 36.6-6.3l-27.7 27.6 20.2 20.2 27-27 19.7-19.6z" fill="#e2001a"/><g transform="translate(-154.66 -45.323)" fill="#fff"><path d="m322.8 84.094h-15.2c0.8-3.6 4-5.7 7.6-5.7 3.7 0.1 6.8 2.2 7.6 5.7m9.8 6.7c0.2-0.9 0.2-1.7 0.2-2.6 0-10-7.4-18.1-17.7-18.1-9.8 0-17.5 8.2-17.5 17.8 0 9.7 8 17.5 17.7 17.5 7.3 0 13.1-4.6 16.1-10.9h-10.4c-1.5 1.7-3.2 2.6-5.6 2.6-3.9 0-7.2-2.3-7.8-6.3h25zm21.2-11.3h2v-9.3c-1.3 0-4.4 0.1-4.4 0.1-3.6 0.1-7.6 1.4-10 4.2-2.7 3.3-3 6.1-3 10.2v19.8h10v-18.3c0-3.7 0.9-6.7 5.4-6.7m31.1 8.3c0 4.8-3.5 8.5-8.4 8.5-4.7 0-8.3-3.8-8.3-8.3 0-4.7 3.4-8.5 8.3-8.5 4.9-0.1 8.4 3.5 8.4 8.3m0 16.6h10v-33.1h-10v3.5h-0.1c-2-3.3-6.1-4.7-9.8-4.7-10.1 0-16.8 8-16.8 17.6 0 9.8 6.5 17.7 16.8 17.7 3.6 0 8-1.3 9.8-4.7h0.1v3.7zm25.6-24.1c0-1.5 1.5-2.2 2.8-2.2 1.7 0 3.1 0.7 3.1 2.5h9.8c-0.7-7-6.1-10.4-12.8-10.4-6.4 0-13 4-13 10.9 0 4.7 4 7.2 8 8.6 1.4 0.5 2.9 1 4.3 1.5 1.8 0.7 4.5 1.4 4.5 3.8 0 1.7-2 2.6-3.5 2.6-2 0-3.5-1-3.8-3h-9.9c0.8 7.3 6.6 11 13.6 11 6.8 0 13.6-3.8 13.6-11.3 0.1-11.8-16.7-8.8-16.7-14m63.7 24.2h10v-19.8c0-4.1-0.3-6.9-3-10.2-2.4-2.9-6.4-4.1-10-4.2 0 0-1.3-0.1-2.6-0.1s-2.6 0.1-2.6 0.1c-2.7 0.1-5.7 1.2-8 2.8-2.3-1.6-5.3-2.7-8-2.8 0 0-1.3-0.1-2.6-0.1s-2.6 0.1-2.6 0.1c-3.6 0.1-7.6 1.4-10 4.2-2.7 3.3-3 6.1-3 10.2v19.8h10v-18.3c0-3.8 0.8-6.8 5.4-6.8h0.5c4.5 0 5.4 3 5.4 6.8v18.3h10v-18.3c0-3.8 0.8-6.8 5.4-6.8h0.5c4.5 0 5.4 3 5.4 6.8v18.3zm44-3.2c2.7-3.3 3-6.1 3-10.2v-19.8h-10v18.3c0 3.8-0.8 6.8-5.4 6.8h-0.5c-4.5 0-5.4-3-5.4-6.8v-18.3h-10v19.8c0 4.1 0.3 6.9 3 10.2 2.4 2.9 6.4 4.1 10 4.2 0 0 1.3 0.1 2.6 0.1s2.6-0.1 2.6-0.1c3.8-0.2 7.8-1.4 10.1-4.2m23.7-20.7h9.8c-0.7-7-6.1-10.4-12.8-10.4-6.4 0-13 4-13 10.9 0 4.7 4 7.2 8 8.6 1.4 0.5 2.9 1 4.3 1.5 1.8 0.7 4.5 1.4 4.5 3.8 0 1.7-2 2.6-3.5 2.6-2 0-3.5-1-3.8-3h-9.9c0.8 7.3 6.6 11 13.6 11 6.8 0 13.6-3.8 13.6-11.3 0-11.7-16.8-8.8-16.8-14 0-1.5 1.5-2.2 2.8-2.2 1.8 0 3.1 0.6 3.2 2.5"/><path transform="translate(212.6 -99.206)" d="m95.9 225.1v-6.2h2v14.3h-2v-6.2h-5.9v6.2h-2.1v-14.3h2.1v6.2z"/><path d="m321.9 134.29c-4.1 0-7.4-3.3-7.4-7.4s3.3-7.4 7.4-7.4c4.2 0 7.4 3.3 7.4 7.4s-3.3 7.4-7.4 7.4m0-12.9c-2.2 0-4 1.2-4.8 3.2-0.3 0.7-0.5 1.5-0.5 2.3s0.2 1.6 0.5 2.3c0.9 2 2.6 3.2 4.8 3.2 2.3 0 4.2-1.3 5-3.5 0.2-0.6 0.4-1.3 0.4-1.9 0-3.1-2.3-5.6-5.4-5.6"/><path d="m343 133.59c-1 0.4-2 0.7-3.1 0.7-4.1 0-7.3-3.3-7.3-7.4s3.2-7.4 7.3-7.4c2.7 0 5.1 1.5 6.4 3.9h-2.4c-1.1-1.2-2.3-1.9-3.9-1.9-3 0-5.3 2.6-5.3 5.5s2.3 5.4 5.3 5.4c2.3 0 4.1-1.4 4.9-3.5h-6.6v-1.9h9c-0.1 2.8-1.7 5.3-4.3 6.6"/><path transform="translate(212.6 -99.206)" d="m146 225v2h-5.6v4.3h5.6v1.9h-7.7v-14.3h7.7v1.9h-5.6v4.2z"/><path d="m366.1 134.29c-2.6 0-4.4-1.9-4.4-4.5h2.1c0 1.4 0.8 2.6 2.3 2.6 1.4 0 2.3-1 2.3-2.4 0-1.5-1.1-1.9-2.3-2.3-2.2-0.8-4-1.5-4-4.3 0-2.2 1.8-3.9 4-3.9 2.4 0 4.1 1.6 4.1 4h-2.1c0-1.2-0.8-2.1-2-2.1-1 0-1.9 0.9-1.9 1.9 0 3 6.3 1.2 6.3 6.6-0.1 2.6-1.9 4.4-4.4 4.4"/><path d="m384.9 123.39c-1.1-1.2-2.3-2-4-2-3 0-5.3 2.5-5.3 5.5 0 2.9 2.3 5.5 5.3 5.5 1.5 0 2.9-0.8 3.9-1.9h2.6c-1.3 2.4-3.7 3.8-6.5 3.8-4.1 0-7.3-3.4-7.3-7.5s3.3-7.3 7.3-7.3c1.5 0 3.1 0.5 4.4 1.4 1 0.7 1.6 1.5 2.2 2.5h-2.6z"/><path transform="translate(212.6 -99.206)" d="m180.6 218.9v6.2h5.8v-6.2h2.1v14.3h-2.1v-6.2h-5.8v6.2h-2.1v-14.3z"/><path d="m412.5 134.29c-4.1 0-7.4-3.3-7.4-7.4s3.3-7.4 7.4-7.4c4.2 0 7.4 3.3 7.4 7.4s-3.3 7.4-7.4 7.4m0-12.9c-2.2 0-4 1.2-4.8 3.2-0.3 0.7-0.5 1.5-0.5 2.3s0.2 1.6 0.5 2.3c0.9 2 2.6 3.2 4.8 3.2 2.3 0 4.2-1.3 5-3.5 0.2-0.6 0.4-1.3 0.4-1.9-0.1-3.1-2.3-5.6-5.4-5.6"/><path d="m430.6 134.29c-4.1 0-7.4-3.3-7.4-7.4s3.3-7.4 7.4-7.4c4.2 0 7.4 3.3 7.4 7.4s-3.4 7.4-7.4 7.4m0-12.9c-2.2 0-4 1.2-4.8 3.2-0.3 0.7-0.5 1.5-0.5 2.3s0.2 1.6 0.5 2.3c0.9 2 2.6 3.2 4.8 3.2 2.3 0 4.2-1.3 5-3.5 0.2-0.6 0.4-1.3 0.4-1.9-0.1-3.1-2.3-5.6-5.4-5.6"/><path transform="translate(212.6 -99.206)" d="m229.4 233.2v-14.3h2.1v12.4h4.9v1.9z"/><path d="m475.3 131.59c-0.8 1.8-2.5 2.4-4.4 2.4h-4.3v-14.3h3.7c1.8 0 3.5 0.6 4.2 2.4 0.2 0.5 0.3 1 0.3 1.6 0 1.2-0.4 1.9-1.3 2.7 1.3 0.8 2.1 1.9 2.1 3.5 0 0.5-0.1 1.1-0.3 1.7m-5-10h-1.6v4h1.7c1.3 0 2.3-0.6 2.3-2 0-1.5-1.1-2-2.4-2m2.8 6.8c-0.6-0.8-1.4-0.9-2.3-0.9h-2v4.5h2.3c1.3 0 2.6-0.8 2.6-2.2-0.1-0.4-0.3-1-0.6-1.4"/><path d="m486.4 128.39c-0.4 0.2-0.9 0.3-1.4 0.3l4 5.3h-2.6l-4.7-6.6v6.6h-2.1v-14.3h4.4c1.3 0 2.8 0.2 3.8 1.2 0.9 0.9 1.3 2.1 1.3 3.4 0 1.9-0.9 3.5-2.7 4.1m-2.6-6.8h-2.2v5.5h1.4c1.8 0 3.9-0.5 3.9-2.8 0.1-1.8-1.4-2.7-3.1-2.7"/><path d="m501 132.99c-0.9 0.8-2.1 1.2-3.3 1.2s-2.4-0.4-3.3-1.2c-1.1-0.9-1.4-2.3-1.4-3.7v-9.6h2.1v9.6c0 1.7 0.9 3 2.7 3s2.7-1.3 2.7-3v-9.6h2.1v9.6c-0.1 1.5-0.5 2.8-1.6 3.7"/><path d="m510.6 134.29c-2.6 0-4.4-1.9-4.4-4.5h2.1c0 1.4 0.8 2.6 2.3 2.6 1.4 0 2.3-1 2.3-2.4 0-1.5-1.1-1.9-2.3-2.3-2.2-0.8-4-1.5-4-4.3 0-2.2 1.8-3.9 4-3.9 2.4 0 4.1 1.6 4.1 4h-2.1c0-1.2-0.8-2.1-2-2.1-1 0-1.9 0.9-1.9 1.9 0 3 6.3 1.2 6.3 6.6-0.1 2.6-1.9 4.4-4.4 4.4"/><path d="m522.4 134.29c-2.6 0-4.4-1.9-4.4-4.5h2.1c0 1.4 0.8 2.6 2.3 2.6 1.4 0 2.3-1 2.3-2.4 0-1.5-1.1-1.9-2.3-2.3-2.2-0.8-4-1.5-4-4.3 0-2.2 1.8-3.9 4-3.9 2.4 0 4.1 1.6 4.1 4h-2.1c0-1.2-0.8-2.1-2-2.1-1 0-1.9 0.9-1.9 1.9 0 3 6.3 1.2 6.3 6.6 0 2.6-1.8 4.4-4.4 4.4"/><path transform="translate(212.6 -99.206)" d="m325.8 225v2h-5.6v4.3h5.6v1.9h-7.7v-14.3h7.7v1.9h-5.6v4.2z"/><path transform="translate(212.6 -99.206)" d="m330.1 233.2v-14.3h2.1v12.4h4.9v1.9z"/></g></svg>
